<svg xmlns="http://www.w3.org/2000/svg" fill="none" viewBox="0 0 260 60" height="60" width="260">
<path fill="#0F3062" d="M18.6579 28.0021C18.2483 28.0021 18.1426 28.1398 18.1436 28.5286C18.1568 31.3461 18.1619 34.1646 18.1396 36.9821C18.1355 37.4538 18.3113 37.5389 18.7321 37.5348C20.7138 37.5166 22.6956 37.5267 24.6773 37.5267H25.3074C25.3176 37.7525 25.34 37.9175 25.3298 38.0805C25.2658 39.1911 25.2322 40.3058 25.1184 41.4113C24.9558 42.9896 24.656 44.5436 23.971 45.9964C23.1854 47.6618 21.9202 48.7025 20.0482 48.8908C17.2666 49.1713 15.1019 48.5031 13.7949 45.4021C13.1201 43.8026 12.7553 42.121 12.6079 40.408C12.3996 37.9904 12.2156 35.5667 12.1668 33.1421C12.0601 27.9141 12.0977 22.6851 12.804 17.4874C13.0205 15.898 13.3467 14.3338 14.1252 12.9003C14.8285 11.6034 15.8377 10.6791 17.3143 10.3804C17.9221 10.2579 18.5573 10.2225 19.1792 10.2276C21.1935 10.2417 22.7149 11.1205 23.6976 12.8891C24.3938 14.1425 24.7607 15.5092 25.031 16.9002C25.3064 18.3176 25.5361 19.7441 25.7953 21.2211C29.0301 20.6218 32.2436 20.0265 35.4856 19.4262C35.3718 18.5312 35.2772 17.7122 35.1624 16.8962C34.7376 13.8772 34.0018 10.9464 32.6095 8.21188C30.9428 4.93679 28.5311 2.43112 25.0361 1.0897C22.3917 0.0752809 19.6457 -0.137322 16.8448 0.124888C13.36 0.451891 10.2999 1.73156 7.74293 4.13903C5.25912 6.47867 3.69505 9.38727 2.56494 12.552C0.823022 17.4328 0.211216 22.5099 0.049626 27.6468C-0.0967196 32.2704 0.0557238 36.8869 0.843347 41.4619C1.41145 44.7643 2.27835 47.9736 3.87087 50.9521C5.5447 54.0814 7.85675 56.5607 11.2034 57.9386C14.2919 59.2112 17.5003 59.4167 20.7687 58.8457C23.6682 58.3385 25.8847 56.7986 27.4538 54.3355C27.9427 53.5681 28.3553 52.7541 28.8025 51.9614C28.8878 51.8096 28.9691 51.6567 29.1094 51.3996C29.1643 51.6051 29.1887 51.679 29.2039 51.7549C29.6104 53.7686 30.023 55.7802 30.4133 57.7969C30.4824 58.1542 30.6013 58.3122 30.9997 58.298C31.896 58.2666 32.7944 58.2879 33.6928 58.2879H35.5344V28.0477C35.3687 28.0335 35.2193 28.0102 35.0709 28.0102C29.6002 28.0082 24.1296 28.0123 18.6579 28.0011V28.0021ZM102.864 53.7837C98.8959 36.3179 94.9263 18.8531 90.9709 1.38532C90.8764 0.966187 90.7117 0.857861 90.2991 0.859885C86.5897 0.876084 82.8812 0.877096 79.1718 0.857861C78.749 0.855836 78.5884 0.983397 78.4959 1.38532C77.318 6.55561 76.1249 11.7229 74.9359 16.8901C71.9978 29.6534 69.0587 42.4156 66.1206 55.1788C65.8909 56.176 65.6704 57.1753 65.4275 58.2524H75.9674C76.0202 57.9912 76.07 57.7614 76.1117 57.5306C76.7926 53.7696 77.4735 50.0095 78.1494 46.2475C78.1941 45.9995 78.2754 45.8587 78.5661 45.8597C82.1566 45.8668 85.7471 45.8658 89.3377 45.8597C89.6131 45.8597 89.7208 45.966 89.7696 46.2303C90.2371 48.7633 90.7158 51.2943 91.1924 53.8263C91.4688 55.2963 91.7483 56.7652 92.0298 58.2494H103.852C103.835 58.1117 103.831 58.0135 103.81 57.9194C103.496 56.5405 103.178 55.1626 102.864 53.7848V53.7837ZM79.4573 36.6014C80.9218 28.3666 82.9209 20.2725 83.864 11.9901C83.9128 11.9972 83.9605 12.0043 84.0093 12.0114C84.054 12.6269 84.113 13.2425 84.1414 13.859C84.3365 18.106 85.4341 22.2011 86.2736 26.3378C86.9392 29.6199 87.6405 32.894 88.3224 36.1722C88.3488 36.2987 88.3387 36.4323 88.3478 36.6004H79.4584L79.4573 36.6014ZM49.2888 47.7357V0.917592H37.5639V58.2484H63.8919V47.7357H49.2898H49.2888ZM213.953 0.903418C213.953 1.16664 213.953 1.39848 213.953 1.63032C213.953 13.1716 213.957 24.7119 213.949 36.2531C213.948 37.9904 213.928 39.7297 213.841 41.4639C213.765 42.9785 213.585 44.4879 212.953 45.8982C212.376 47.186 211.463 48.1467 210.054 48.4312C209.141 48.6155 208.175 48.6701 207.243 48.6145C205.426 48.5051 204.034 47.6223 203.356 45.9063C202.971 44.9304 202.664 43.8805 202.573 42.8428C202.388 40.7299 202.305 38.6019 202.301 36.4799C202.277 24.8546 202.29 13.2293 202.29 1.60399C202.29 1.11467 202.04 0.869672 201.54 0.868997C198.102 0.868997 194.664 0.868997 191.225 0.868997C190.744 0.868997 190.503 1.10185 190.502 1.56755C190.502 12.467 190.49 23.3664 190.51 34.2668C190.515 37.0155 190.577 39.7651 190.694 42.5107C190.802 45.0417 191.215 47.5342 192.011 49.9508C193.423 54.2292 196.192 57.1388 200.624 58.3112C204.531 59.3448 208.485 59.4319 212.442 58.6351C217.534 57.6086 220.871 54.5916 222.487 49.6714C223.542 46.4611 223.855 43.1404 223.865 39.7985C223.904 27.009 223.889 14.2194 223.895 1.43088C223.895 1.26687 223.895 1.10185 223.895 0.903418H213.955H213.953ZM259.829 57.7361C257.048 49.8081 254.268 41.879 251.472 33.956C251.321 33.5268 251.378 33.3202 251.779 33.0833C254.966 31.2033 256.985 28.4375 257.949 24.89C258.835 21.6271 258.999 18.3115 258.665 14.9635C258.361 11.9284 257.44 9.10481 255.705 6.56877C253.87 3.88492 251.478 2.00186 248.204 1.37317C245.964 0.942902 243.696 0.897344 241.429 0.886208C236.417 0.860898 231.404 0.873047 226.391 0.872034C226.227 0.872034 226.062 0.889245 225.876 0.899369V58.2899H226.484C229.905 58.2899 233.325 58.2798 236.746 58.301C237.248 58.3041 237.401 58.1937 237.4 57.6653C237.38 50.5795 237.387 43.4938 237.387 36.4091V35.7216C238.501 35.7216 239.548 35.7449 240.593 35.7105C241.029 35.6963 241.198 35.8431 241.316 36.2552C243.364 43.4259 245.432 50.5917 247.48 57.7624C247.6 58.1816 247.782 58.3031 248.209 58.301C251.935 58.2838 255.66 58.2909 259.386 58.2909H260C259.919 58.0257 259.879 57.8799 259.829 57.7392V57.7361ZM246.469 22.4097C245.694 24.8597 243.862 26.1768 241.277 26.2578C240.01 26.2973 238.74 26.2649 237.411 26.2649C237.401 26.0543 237.387 25.8893 237.387 25.7243C237.386 20.6319 237.393 15.5396 237.374 10.4472C237.372 9.95624 237.514 9.81146 238 9.83374C239.335 9.89347 240.683 9.80843 242.006 9.96332C244.426 10.2468 245.983 11.6682 246.62 13.9886C247.39 16.797 247.348 19.6327 246.469 22.4097ZM184.042 7.34021C181.932 3.78874 178.923 1.40658 174.846 0.48935C171.744 -0.208189 168.635 -0.158582 165.548 0.62906C162.549 1.39443 160.071 2.98287 158.11 5.36503C156.421 7.41513 155.317 9.77097 154.507 12.2756C153.174 16.3991 152.668 20.6613 152.497 24.9629C152.273 30.5655 152.406 36.157 153.392 41.6978C153.988 45.0448 154.936 48.2773 156.503 51.3206C158.25 54.7121 160.889 57.0588 164.522 58.2616C167.368 59.2041 170.29 59.3236 173.247 58.9318C177.83 58.3253 181.41 56.1305 183.898 52.2297C185.685 49.4294 186.651 46.3204 187.299 43.0959C188.172 38.7446 188.359 34.3367 188.409 29.9166C188.357 25.4286 188.16 20.9539 187.298 16.5338C186.669 13.3093 185.734 10.1901 184.042 7.34123V7.34021ZM175.621 40.0992C175.533 41.9651 175.369 43.8339 174.818 45.637C174.363 47.1242 173.607 48.3867 171.962 48.7663C169.446 49.3474 167.303 48.6266 166.322 45.9741C165.696 44.2845 165.415 42.5229 165.245 40.7441C164.679 34.8034 164.846 28.8475 164.977 22.8966C165.035 20.2705 165.121 17.6282 165.769 15.0658C166.033 14.021 166.47 12.9884 167.002 12.0468C168.505 9.39132 172.798 9.65859 174.112 12.308C174.767 13.6272 175.139 15.0111 175.338 16.4517C175.933 20.7585 175.898 25.0945 175.962 30.5341C175.878 32.9862 175.787 36.5437 175.621 40.0982V40.0992ZM135.477 0.871022C134.598 0.871022 134.771 0.763708 134.59 1.60298C133.381 7.21468 132.221 12.8375 130.967 18.4391C129.398 25.4499 128.172 32.5113 127.555 39.672C127.514 40.1529 127.463 40.6338 127.416 41.1147C127.291 40.8616 127.262 40.6125 127.24 40.3635C126.993 37.4417 126.87 34.5017 126.471 31.6012C125.898 27.4332 125.151 23.2884 124.425 19.1427C123.595 14.3996 122.709 9.66669 121.846 4.9297C121.602 3.59132 121.356 2.25395 121.11 0.91253H104.944V58.2636C105.138 58.2727 105.305 58.2879 105.47 58.2879C108.197 58.2889 110.924 58.2778 113.65 58.3C114.141 58.3041 114.275 58.1613 114.272 57.6764C114.176 41.5145 114.501 25.3507 113.938 9.19188C113.932 9.01066 113.938 8.83045 113.938 8.64924C114.31 10.8876 114.559 13.1301 114.872 15.3634C115.297 18.3986 115.657 21.4489 116.244 24.4537C118.415 35.5738 120.669 46.6767 122.88 57.7888C122.952 58.1492 123.053 58.3031 123.455 58.299C125.605 58.2798 127.756 58.2788 129.907 58.3C130.287 58.3041 130.402 58.1532 130.468 57.8293C130.772 56.3279 131.086 54.8285 131.402 53.3292C132.942 46.0156 134.424 38.689 136.041 31.3916C137.519 24.723 138.517 17.9825 139.436 11.2238C139.541 10.4472 139.66 9.67277 139.774 8.89828C139.822 8.90234 139.87 8.90638 139.917 8.90942C138.909 25.3395 139.535 41.7838 139.308 58.2514H150.575V0.868997H149.907C145.097 0.868997 140.287 0.866972 135.477 0.871022Z"></path>
</svg>
