<svg xmlns="http://www.w3.org/2000/svg" fill="none" viewBox="0 0 24 27" height="27" width="24">
<path fill="#0F3062" d="M23.4031 0H11.902C11.6503 0 11.3884 0.543835 11.3884 0.755326V2.97095C11.3884 2.97095 11.3884 2.99109 11.3884 3.01123C11.3884 3.01123 11.3884 3.03138 11.3884 3.04145C12.466 6.43538 12.7681 9.87967 12.9897 13.3642H12.4358C12.2243 11.1889 10.4015 9.54732 8.55846 8.55029C8.32683 8.41937 7.93406 9.18476 8.01463 9.36604C8.65917 11.0177 4.67105 10.8968 3.61359 11.5414C2.90862 11.9744 2.40507 12.6089 2.13315 13.3642H1.82095C1.55911 13.3642 1.16634 14.2303 1.39797 14.2303H9.90798C10.2 14.2303 11.0561 14.1196 11.8416 14.0893C11.8416 14.0994 11.8416 14.1095 11.8416 14.1196C11.8416 14.2606 11.9625 14.2001 12.0833 14.0793C12.4559 14.0692 12.7883 14.0793 13.0199 14.1296C13.0401 14.5425 13.0703 14.9454 13.1005 15.3583H6.98738C6.72554 15.3583 6.33277 16.2244 6.5644 16.2244H12.6876C12.8386 16.2244 13.03 15.9424 13.1206 15.7007C13.1508 16.2345 13.1911 16.7582 13.2314 17.2919H5.56737C5.30552 17.2919 4.91275 18.158 5.14439 18.158H13.0501C14.5104 18.158 14.5507 17.8056 14.5608 19.2356C14.5608 19.8097 14.6111 20.4442 14.6111 21.0887C14.3795 21.3002 14.1579 21.8742 14.3493 21.8742H14.591C14.5004 23.2943 14.0673 24.5934 12.4358 25.0768C12.2142 25.1373 11.9826 25.1876 11.7409 25.238C11.7409 25.238 11.7308 25.238 11.7208 25.238C9.47492 25.6811 6.52412 25.3991 4.37899 25.238C0.320371 24.9157 0.622502 21.2801 0.692999 18.1681H4.25814C4.51998 18.1681 4.91275 17.302 4.68112 17.302H1.99216C1.99216 17.302 1.99216 17.2617 1.99216 17.2416V16.2345H4.77176C5.03361 16.2345 5.42638 15.3684 5.19474 15.3684H2.00223V15.3079C2.00223 15.0864 1.78067 15.2677 1.71017 15.3382C1.71017 15.3382 1.69003 15.3583 1.67996 15.3684H0.572147C0.3103 15.3684 -0.0824691 16.2345 0.149164 16.2345H1.40804V17.302H0.632573C0.380798 17.302 0.118951 17.8458 0.118951 18.0573C0.118951 20.1823 -0.515523 23.4453 1.14619 25.097C2.91869 26.8594 6.80611 26.1041 9.04187 26.1041C9.7972 26.1041 10.5425 26.1041 11.2474 26.0235C11.2474 26.0739 11.2676 26.1041 11.3078 26.1041H20.2006C20.4523 26.1041 20.7142 25.5602 20.7142 25.3487V21.7937C20.9055 21.6426 21.0465 21.2801 21.0566 21.1189C21.4191 16.9697 21.6709 12.8003 22.104 8.651C22.4162 5.64984 23.4736 3.14216 23.4736 0.120852C23.4736 0.0604261 23.4535 0.010071 23.383 0.010071L23.4031 0ZM2.59642 13.3542C3.12011 11.1385 8.51818 12.2363 8.82031 9.84945C10.1195 10.6954 11.3381 11.8737 11.7409 13.3542H2.59642ZM20.1401 21.9347V25.2279H13.5335C13.9666 24.9056 14.3594 24.4726 14.6816 23.8683C14.9938 23.264 15.1449 22.5792 15.2255 21.8642H20.1603C20.1603 21.8642 20.1401 21.9145 20.1401 21.9347ZM21.7414 7.47269C21.5501 8.70136 21.4796 9.94009 21.3789 11.1788C21.2882 12.2967 21.2077 13.4045 21.117 14.5224C21.0364 15.5496 20.9458 16.5668 20.8652 17.5941C20.8652 17.6343 20.7847 21.1088 20.8854 20.9981C20.3415 21.5721 16.8167 21.129 15.2859 21.0182C15.3161 19.7795 15.1852 18.4904 15.1852 17.3926C15.1852 17.3322 15.165 17.2819 15.0945 17.2819H13.886C13.886 17.2819 13.8961 17.2416 13.8961 17.2214V13.4649C13.8961 13.4045 13.876 13.3542 13.8055 13.3542H13.6343C13.4228 9.87967 13.1609 6.46559 12.2042 3.07166H22.7183C22.7888 3.07166 22.8694 3.01123 22.9399 2.91052C22.678 4.56217 21.8421 6.67708 21.7213 7.45255L21.7414 7.47269ZM17.1289 2.21562C15.9909 2.21562 14.3392 2.5379 13.2415 2.21562C12.5264 2.00413 12.325 2.04442 12.2747 2.06456C12.3049 2.02427 12.3552 1.843 11.9927 1.21859C11.62 0.574048 11.4589 0.624403 12.6775 0.866107C13.8961 1.11788 15.4571 0.866107 16.6958 0.866107C17.7432 0.866107 21.7918 0.191349 22.678 0.946675C22.96 1.18838 23.0607 1.64158 23.0305 2.20555H17.1289V2.21562ZM17.0785 7.41227C15.7592 7.86546 15.0442 9.55739 15.0442 10.8465C15.0442 12.2766 16.0916 14.2001 17.7835 13.6462C19.1632 13.193 19.7876 11.5112 19.8481 10.2019C19.7776 8.78192 18.8309 6.80801 17.0785 7.41227ZM16.7059 12.5586C15.9707 12.055 15.6283 11.068 15.6283 10.2019C15.6283 8.74164 16.8872 7.61369 18.1662 8.48987C18.9316 9.02363 19.2035 9.96023 19.2438 10.8465C19.1733 12.2866 17.9849 13.4347 16.7059 12.5586Z" id="Vector"></path>
</svg>
