<svg xmlns="http://www.w3.org/2000/svg" fill="none" viewBox="0 0 260 67" height="67" width="260">
<path fill="#0F3062" d="M50.3807 2.60743C51.4429 2.63818 52.5072 2.61768 53.5715 2.61768C54.2004 2.61768 54.8303 2.61768 55.4644 2.61768V1.9238H43.1654V2.61051H49.0313C44.0979 17.7129 39.1934 32.7251 34.2898 47.7363C34.2507 47.7333 34.2116 47.7292 34.1714 47.7261C28.6205 32.7077 23.0685 17.6883 17.4897 2.59411H23.3505V1.9238H0V2.61768H0.577432C2.34473 2.61768 4.11202 2.64843 5.87828 2.60026C6.47836 2.58386 6.71921 2.7745 6.9189 3.32899C14.3813 23.9414 21.8621 44.5478 29.341 65.1541C29.3935 65.2976 29.4532 65.438 29.553 65.685C29.6518 65.4052 29.7053 65.2627 29.7517 65.1172C32.8097 55.6181 35.8657 46.119 38.9247 36.6199C42.5221 25.4491 46.1236 14.2794 49.7106 3.10453C49.83 2.73248 49.9783 2.59513 50.3797 2.60641L50.3807 2.60743ZM89.0018 4.57428C85.1111 1.88793 80.7664 0.435597 76.1892 0.3905C71.228 0.413049 66.941 1.93098 63.0451 4.58453C57.7402 8.19845 53.9472 13.072 51.2813 18.8485C49.5624 22.5732 48.4745 26.4761 48.3046 30.583C48.0916 35.7538 48.9099 40.7893 50.5897 45.6813C52.3487 50.805 54.9292 55.4551 58.8909 59.2279C65.0862 65.1295 72.4683 67.166 80.8261 65.4913C86.4172 64.371 90.8741 61.2706 94.5497 57.012C98.2757 52.695 100.755 47.7107 102.318 42.2632C103.796 37.1139 104.434 31.8857 103.351 26.5786C101.473 17.3798 96.7873 9.94699 89.0028 4.57326L89.0018 4.57428ZM91.9281 32.6011C91.9116 36.7531 91.7685 40.9 91.292 45.0264C90.8216 49.1036 90.097 53.1285 88.4254 56.9218C87.4136 59.2187 86.0621 61.2767 84.0519 62.8398C81.7401 64.6365 79.064 65.3427 76.1778 65.3785C73.8434 65.4083 71.5553 65.1469 69.4041 64.166C66.4716 62.8285 64.6055 60.4947 63.321 57.6362C61.9654 54.6177 61.2809 51.4179 60.8455 48.1627C59.9264 41.3038 59.7895 34.4101 60.0437 27.5082C60.2238 22.6203 60.7992 17.7754 62.2793 13.0812C63.2108 10.1284 64.4697 7.33956 66.5797 5.00681C69.4082 1.88075 72.9829 0.686706 77.1258 1.02596C82.5245 1.46771 85.9777 4.55173 88.2329 9.22134C89.7779 12.4202 90.5756 15.8363 91.1026 19.3231C91.7685 23.7252 91.9425 28.157 91.9281 32.6011ZM141.923 39.1648H147.392C147.403 39.3134 147.414 39.3985 147.414 39.4825C147.414 45.1873 147.415 50.8931 147.414 56.5979C147.414 56.7342 147.412 56.8736 147.381 57.0048C146.646 60.0796 144.932 62.4165 142.105 63.9016C139.965 65.026 137.647 65.4298 135.261 65.5169C131.723 65.6471 128.796 64.3905 126.545 61.6416C124.745 59.4431 123.687 56.8808 122.907 54.1924C121.525 49.4357 121 44.5467 120.874 39.625C120.762 35.2567 120.771 30.8803 120.874 26.511C120.981 21.948 121.488 17.4177 122.6 12.9746C123.291 10.2135 124.214 7.54147 125.827 5.15952C126.991 3.43763 128.456 2.05192 130.443 1.30884C132.598 0.502218 134.799 0.673382 136.983 1.13665C141.115 2.01195 144.318 4.35392 146.879 7.60194C150.333 11.9835 152.376 17.0078 153.476 22.4358C153.536 22.7382 153.624 22.8724 153.955 22.7402V0C153.725 0.15579 153.518 0.218311 153.457 0.349503C152.998 1.32627 152.231 1.99862 151.293 2.46189C149.348 3.42431 147.394 3.75741 145.266 2.85137C143.431 2.07037 141.509 1.46566 139.585 0.924491C137.248 0.267508 134.856 -0.0543215 132.414 0.312605C129.154 0.801499 126.264 2.16364 123.6 4.03312C118.948 7.29651 115.442 11.5541 112.835 16.5578C110.393 21.2459 109.003 26.2219 108.898 31.5239C108.835 34.6756 109.118 37.7996 109.734 40.8928C110.81 46.2953 112.74 51.3462 116.004 55.8354C119.29 60.3543 123.489 63.6525 128.942 65.1879C132.888 66.2979 136.85 66.508 140.761 65.0116C142.726 64.2603 144.662 63.4312 146.613 62.644C148.384 61.9307 150.189 61.3516 152.121 61.289C153.497 61.245 154.783 61.5155 155.885 62.3898C156.655 63.0007 157.188 63.7796 157.532 64.699C157.578 64.823 157.752 64.8989 157.867 64.9973C157.926 64.8763 158.011 64.7615 158.04 64.6344C158.07 64.5043 158.048 64.3628 158.048 64.2265C158.048 56.0957 158.048 47.9649 158.048 39.8341V39.1341H163.321V38.4289H141.924V39.1658L141.923 39.1648ZM259.386 40.6622C259.386 40.9062 259.39 41.1245 259.386 41.3428C259.316 44.433 258.86 47.4545 257.861 50.394C254.783 59.4636 246.836 63.8903 239.388 64.1968C236.221 64.3269 233.045 64.2029 229.872 64.1917C229.809 64.1917 229.746 64.1589 229.676 64.1394V32.9609C231.259 32.6493 232.836 32.5724 234.399 32.8574C238.419 33.5892 241.43 35.6216 242.908 39.5666C243.564 41.3213 243.9 43.1487 244.135 44.9967C244.188 45.419 244.347 45.5266 244.74 45.4026V20.018C244.291 19.9934 244.282 19.9924 244.235 20.3716C244.008 22.239 243.642 24.0726 243.017 25.856C242.045 28.6234 240.159 30.3996 237.345 31.2441C235.075 31.9257 232.758 32.0036 230.418 31.8724C230.169 31.858 229.921 31.8273 229.695 31.8058V2.48752C232.461 2.48752 235.188 2.48239 237.913 2.48854C240.367 2.49469 242.755 2.92209 245.094 3.64057C249.461 4.98118 252.792 7.59067 254.932 11.6453C256.277 14.1933 257.062 16.9268 257.533 19.7505C257.807 21.3965 257.99 23.058 258.217 24.7378H258.619V1.90843H199.096V2.56131H206.343C206.343 2.795 206.343 2.96206 206.343 3.12913C206.343 19.7669 206.343 36.4047 206.34 53.0434C206.34 53.2628 206.332 53.4944 206.265 53.6994C205.215 56.9228 203.479 59.7004 200.82 61.8548C197.789 64.3116 194.268 65.4154 190.396 65.4933C188.396 65.5333 186.424 65.3457 184.521 64.6744C181.532 63.6197 179.617 61.4797 178.526 58.6006C178.023 57.2713 177.743 55.8579 177.361 54.4835C177.319 37.3845 177.278 20.2855 177.236 3.18652C177.236 2.98973 177.236 2.79295 177.236 2.54389H183.547V1.87256H160.189V2.56336H166.522C166.522 2.84214 166.522 3.05943 166.522 3.27774C166.542 14.9282 166.56 26.5776 166.587 38.228C166.597 42.5491 166.576 46.8713 166.667 51.1914C166.723 53.8511 167.634 56.2699 169.228 58.4172C171.271 61.1691 174.039 62.9433 177.172 64.2101C180.005 65.356 182.969 65.9709 186.004 66.2354C188.592 66.4609 191.181 66.4752 193.74 65.9402C200.319 64.5627 204.7 60.6833 206.924 54.3841C207.107 53.8665 207.192 53.2874 207.193 52.737C207.208 36.2355 207.205 19.7341 207.205 3.23264V2.58898H218.587V64.1999H213.377V64.8876H260V40.6633H259.383L259.386 40.6622Z"></path>
</svg>
