<svg viewBox="0 0 1177.32 1348.03" xmlns="http://www.w3.org/2000/svg" data-sanitized-data-name="Layer 2" data-name="Layer 2" id="Layer_2">
  <defs>
    <style>
      .cls-1 {
        fill: #ffd6d2;
      }

      .cls-1, .cls-2, .cls-3, .cls-4 {
        stroke-width: 0px;
      }

      .cls-2 {
        fill: #f8f5f1;
      }

      .cls-3 {
        fill: #0f3062;
      }

      .cls-4 {
        fill: #003166;
      }
    </style>
  </defs>
  <g id="MASCOT">
    <g>
      <g>
        <path d="M1175.64,872.73c-4-16.1-21.26-22.9-35.95-16.75l-7.59,2.96c-30.8,12.25-63.22,18.71-96.27,22.03-37.54,3.55-76.6,3.52-111.73,13.8,5.74-5.81,11.4-11.78,16.92-17.98,45.52-47.78,80.53-107.26,104.08-172.58,25.43-65.63,40.04-137.2,39.77-209.17C1083.94,246.57,919.08,0,588.7,0c-57.75,0-110.42,7.55-158.06,21.31-75.19,20.45-136.79,55.65-185.69,100.86-.61-.7-.82-1.73-.1-2.8,17.79-26.34,54.08-72.62,105.02-101.56,6.92-3.93,5.13-14.3-2.74-15.55-58.78-9.31-125.64,9.98-178.54,57.37-81.11,72.67-100.18,185.24-46.53,258.79-19.45,56.44-29.31,116.46-29.54,176.59-.57,152.64,65.71,303.46,160.52,399.48-36.53-10.69-74.46-9.4-111.56-13.54-35.79-3.45-70.75-11.14-103.86-24.99-14.8-6.17-31.88.65-35.95,16.75-4.77,17.87,1.35,36.04,9.26,51.3,14.78,27.34,38.71,47.59,65.8,61.42-15.42,12.59-21.85,34.31-12.92,52.72,11.91,26.6,43.92,34.07,68.89,37.96,7.4,1.01,14.76,1.65,22.12,2.05-18.49,30.65-10,69.28,30.8,81.87,19.85,5.91,41.19,5.31,60.94.18,8.16,19.23,18.23,37.68,29.64,55.01,26.36,39.34,61.81,73.89,104.35,95.26-37.14,3.96-59.46,8.99-59.46,14.47,0,12.73,119.79,23.06,267.55,23.06s267.55-10.32,267.55-23.06c0-5.49-22.32-10.52-59.46-14.47,42.53-21.37,77.98-55.92,104.35-95.26,11.39-17.31,21.45-35.75,29.61-54.96,12.23,3.21,25.02,4.46,37.91,3.76,54.15-1.73,77.98-46.8,53.81-85.85,7.38-.4,14.76-1.04,22.17-2.06,16.76-2.53,33.92-6.25,49.71-16.16,16.68-10.1,27.59-31.5,21.66-51.86-3.09-9.42-8.61-16.74-15.44-22.64,27.11-13.83,51.06-34.09,65.85-61.44,7.9-15.26,14.05-33.43,9.26-51.3Z" class="cls-2"></path>
        <path d="M667.61,785.87c-52.54,16.93-104.72,20.51-157.79,3.35-2.96-1.16-6.45-.48-8.51,2.22-2.4,3.11-1.83,7.58,1.28,9.99,12.65,9.76,26.4,15.86,41.14,20.22,43.85,13.11,94.38,5.3,130.66-23.08,6.64-4.93,1.05-15.35-6.79-12.69Z" class="cls-2"></path>
        <path d="M397.85,631.27c-36.32,0-65.77,22.64-65.77,50.58s29.44,50.58,65.77,50.58,65.77-22.65,65.77-50.58-29.45-50.58-65.77-50.58Z" class="cls-2"></path>
        <path d="M779.35,631.27c-36.32,0-65.77,22.64-65.77,50.58s29.44,50.58,65.77,50.58,65.77-22.65,65.77-50.58-29.45-50.58-65.77-50.58Z" class="cls-2"></path>
        <path d="M391.07,608.1c9.37-.24,18.92-.75,28-.79,27.32-1.02,53.65,3.39,80.93,4.39,1.46-.06,2.89-.68,3.95-1.84,2.1-2.31,1.93-5.88-.38-7.97-7.72-7.03-16.85-12.33-26.65-15.71-29.35-10.16-64.5-7.42-89.49,12.3-3.91,3.05-1.38,9.93,3.64,9.61Z" class="cls-2"></path>
        <path d="M790.35,604.72c5.52-8.27-9.57-12.86-14.68-15.64-14.18-5.89-29.56-8.05-44.82-7.67-20.33.61-41.27,6.21-56.99,19.83-1.15,1.03-1.91,2.54-1.92,4.21-.04,3.24,2.67,5.85,5.9,5.74,9.85.08,18.75-.56,27.64-1.11,24.81-1.61,55.17-2.74,80.08-3.32,1.8.06,3.58-.53,4.79-2.04Z" class="cls-2"></path>
      </g>
      <ellipse ry="23.06" rx="267.55" cy="1324.98" cx="588.66" class="cls-3"></ellipse>
      <g>
        <g>
          <g>
            <path d="M177.41,1065.88s-41.53,36.03-11.82,72.08c16.57,20.1,56.83,24.16,87.12,17.07" class="cls-2"></path>
            <path d="M183.37,1072.75c-17.32,17.2-27.56,43.09-7.97,62.68,20.07,17.75,50.65,18.94,76.54,16.33,1.85-.27,3.57,1.04,3.8,2.9.2,1.62-.78,3.11-2.28,3.61-21.6,6.91-45.65,8.37-67.82,1.78-50.03-15.43-51.5-70.02-14.2-101.04,9.17-7.44,20.53,5.73,11.92,13.74h0Z" class="cls-3"></path>
          </g>
          <polygon points="196.59 1075.32 156.59 1073.24 156.59 1043.85 201.48 1056.51 196.59 1075.32" class="cls-2"></polygon>
          <path d="M237.47,1106.55l-40.88-31.23-31.25-5.28,17.35-95.84,65.8-53.69,93.73,52.22s-86.78,16.08-94.19,40.8c-7.41,24.73-10.55,72.46-10.55,72.46v20.56Z" class="cls-2"></path>
          <g>
            <path d="M106.66,980.1s-51.85,15.34-34.85,55.76c17.27,41.04,111.37,38.06,111.37,38.06" class="cls-2"></path>
            <path d="M109.56,989.92c-13.08,3.89-27.42,12.57-31.18,23.62-4.12,11.95,2.1,26.44,13.16,34.03,25.41,17.31,60.86,20.76,91.5,21.91,2.5-.04,4.57,2.01,4.52,4.52-.04,2.35-1.92,4.24-4.24,4.35-16.98.75-33.71.09-50.6-2.23-24.97-3.89-56.98-11.36-68.89-37.96-9.34-19.26-1.91-42.15,15.07-54.42,7.81-6.02,15.4-10.12,24.86-13.47,5.36-1.83,11.18,1.03,13.01,6.39,1.96,5.64-1.42,11.8-7.2,13.26h0Z" class="cls-3"></path>
          </g>
          <g>
            <path d="M313.24,946.73c-64.71-78.5-156.65-30.28-276.6-81.8-44.79-19.24-42.39,74.37,50.66,117.69,14.92,6.95,28.85,9.11,28.85,9.11" class="cls-2"></path>
            <path d="M304.47,953.96c-39.06-50.78-107.18-45.86-165.18-53.21-36.8-4.17-73.66-13.21-107.63-28.45-24.22-8.98-13.34,33.55-6.47,44.26,18.12,35.64,55,57.43,91.6,71.12,2.27.74,3.49,3.27,2.59,5.5-.65,1.61-2.21,2.59-3.85,2.6-11.24-.02-21.85-2.81-32.17-7.01-29.81-13.82-56.44-35.18-72.41-64.74-7.91-15.26-14.04-33.43-9.26-51.3,4.07-16.09,21.16-22.91,35.95-16.75,33.11,13.85,68.06,21.54,103.86,24.99,42.12,4.7,85.31,2.38,126.31,18.57,21,8.29,39.85,22.66,54.21,39.96,9.4,11.81-7.64,26.04-17.55,14.47h0Z" class="cls-3"></path>
          </g>
        </g>
        <g>
          <g>
            <path d="M999.91,1065.88s41.53,36.03,11.82,72.08c-16.57,20.1-56.83,24.16-87.12,17.07" class="cls-2"></path>
            <path d="M1005.87,1059.01c48.03,41.62,26.12,103.01-37.24,105.03-15.32.83-30.5-1.05-44.77-5.76-1.76-.58-2.72-2.48-2.13-4.24.51-1.55,2.04-2.48,3.6-2.28,14.03,1.77,28.25,1.5,41.78-.91,46.43-7.22,60.63-44.31,26.85-78.1-8.63-8.04,2.8-21.16,11.92-13.74h0Z" class="cls-3"></path>
          </g>
          <polygon points="980.74 1075.32 1020.74 1073.24 1020.74 1043.85 975.84 1056.51 980.74 1075.32" class="cls-2"></polygon>
          <path d="M939.85,1106.55l40.88-31.23,31.25-5.28-17.35-95.84-65.8-53.69-93.73,52.22s86.78,16.08,94.19,40.8c7.41,24.73,10.55,72.46,10.55,72.46v20.56Z" class="cls-2"></path>
          <g>
            <path d="M1070.66,980.1s51.85,15.34,34.85,55.76c-17.27,41.04-111.37,38.06-111.37,38.06" class="cls-2"></path>
            <path d="M1073.57,970.28c18.46,6.94,35.82,17.75,42.41,37.83,5.93,20.37-4.99,41.76-21.66,51.86-15.79,9.91-32.94,13.63-49.71,16.16-16.89,2.31-33.62,2.97-50.6,2.23-2.45-.11-4.34-2.18-4.24-4.63.1-2.42,2.13-4.29,4.52-4.24,16.1-.29,32.54-1.96,48.29-5.14,15.64-3.26,31.35-8.12,43.2-16.76,11.06-7.58,17.28-22.08,13.16-34.03-3.76-11.05-18.1-19.73-31.18-23.62-13.51-3.86-7.64-23.78,5.81-19.65h0Z" class="cls-3"></path>
          </g>
          <g>
            <path d="M864.08,946.73c64.71-78.5,156.65-30.28,276.6-81.8,44.79-19.24,42.39,74.37-50.66,117.69-14.92,6.95-28.85,9.11-28.85,9.11" class="cls-2"></path>
            <path d="M855.31,939.5c45.83-57.05,115.46-52.37,180.52-58.53,33.05-3.32,65.47-9.78,96.27-22.03,0,0,7.58-2.96,7.58-2.96,14.69-6.15,31.95.65,35.95,16.75,4.79,17.87-1.36,36.04-9.26,51.3-15.98,29.56-42.6,50.93-72.41,64.74-5.31,2.35-36.51,12.84-36.32,2.89,0-1.87,1.22-3.4,2.89-3.96,18.69-7.27,36.77-15.64,52.94-27.34,23.13-17.05,43.57-41.7,47-70.47.62-6.45-.1-15.91-5.75-18.43-3.45-1.89-11.97,1.96-15.98,3.75-51.13,22.76-108.43,26.65-163.06,31.7-39.64,3.67-77.89,14.9-102.83,47.06-9.67,11.51-27.08-2.55-17.55-14.47h0Z" class="cls-3"></path>
          </g>
        </g>
      </g>
      <g>
        <path d="M507.02,476.13c29.41.83,100.02.59,147.47-.13,6.63-.1,11.69-5.87,10.89-12.4-6.52-53.39-28.05-263.22-9.23-216.97,34.09,83.77,101.04,173.5,128.78,208.84,7.57,9.64,19.51,14.73,31.72,13.58,20.51-1.93,34.53-2.56,47.6-2.86,71.29-1.67,3,64.91,51.85,169.58,56.46,120.95-1.49,223.57-34.46,268.03-19.57,26.39-68.23,61.66-68.23,61.66C1199.73,805.26,1202.58,1.37,584.66,1.37" class="cls-3"></path>
        <path d="M589.27,1.37C-28.66,1.37-18.04,788.81,360.51,965.46c0,0-56.27-57.68-60.59-63.05-34.75-43.1-98.56-145.69-42.1-266.64,48.86-104.67-19.43-171.25,51.85-169.58,16.8.39,39.32,3.17,66.82,4.85,9.23.57,16.33-7.88,14.26-16.84-8.18-35.48-5.16-95.16,5.24-66.57,12.24,33.67,34,63.38,45.61,77.81,4.73,5.88,11.77,9.42,19.35,9.69,65.07,2.36,97.8,3.44,184.84.98" class="cls-3"></path>
      </g>
      <g>
        <path d="M441.75,52.54c-10.81-12.06-13.04-30.98-27.91-26.07-66.03,21.79-119.76,54.64-165.16,95.82-2.24,2.04-5.52-.4-3.82-2.91,17.79-26.34,54.08-72.62,105.02-101.56,6.92-3.93,5.13-14.3-2.74-15.55-58.78-9.31-125.64,9.98-178.54,57.37-85.63,76.73-102.17,197.94-36.94,270.74,65.23,72.8,187.52,69.62,273.15-7.11,85.63-76.73,102.17-197.94,36.94-270.74Z" class="cls-3"></path>
        <path d="M588.7,0C258.31,0,93.45,246.57,92.52,495.03c-.78,207.35,121.73,411.47,271.69,479.22,0,0,31.84,3.87,17.47-3.34-104.71-52.51-200.55-231.05-148.78-351.92,44.8-104.6-17.82-171.14,47.55-169.47,15.4.39,36.06,3.17,61.28,4.85,8.47.57,14.97-7.88,13.08-16.82-7.5-35.46-4.73-95.1,4.8-66.52,11.22,33.65,52.22-38.45,62.87-24.03,4.34,5.87,55.29,113.46,62.23,113.74,29.84,1.18,34.14,1.61,103.98,1.61" class="cls-3"></path>
        <path d="M588.7,0c330.39,0,495.25,246.57,496.18,495.02.78,207.35-121.73,411.47-271.69,479.22,0,0-31.84,3.87-17.47-3.34,104.71-52.51,200.55-231.05,148.78-351.92-44.8-104.6,17.82-171.14-47.55-169.47-15.4.39-36.05,3.39-61.28,4.85-96.81,5.6-93.24-232.08-164.66-244.88-40.76-7.31-67.76,110.01-61.1,145.3,1.86,9.86-5.56,19.01-15.59,19.25-25.14.58,22.01,88.3-5.61,88.3" class="cls-3"></path>
      </g>
      <g>
        <path d="M509.82,789.22c53.06,17.17,105.24,13.58,157.79-3.35,7.84-2.66,13.43,7.76,6.79,12.69-36.28,28.38-86.81,36.19-130.66,23.08-14.74-4.37-28.5-10.46-41.15-20.22-3.11-2.4-3.69-6.87-1.28-9.99,2.07-2.69,5.55-3.37,8.51-2.22h0Z" class="cls-4"></path>
        <g>
          <ellipse ry="42.75" rx="65.77" cy="676.82" cx="397.85" class="cls-1"></ellipse>
          <ellipse ry="42.75" rx="65.77" cy="676.82" cx="779.35" class="cls-1"></ellipse>
        </g>
        <g>
          <path d="M377.39,598.49c24.99-19.72,60.14-22.46,89.49-12.3,9.8,3.38,18.92,8.68,26.65,15.71,2.31,2.1,2.47,5.67.38,7.97-1.06,1.16-2.49,1.78-3.95,1.84-27.28-1-53.61-5.42-80.93-4.39-9.08.04-18.63.55-28,.79-5.02.31-7.56-6.57-3.64-9.61h0Z" class="cls-3"></path>
          <path d="M795.59,606.75c-24.91.58-55.28,1.72-80.08,3.32-8.89.55-17.79,1.19-27.63,1.11-3.23.11-5.94-2.5-5.9-5.74.01-1.67.76-3.18,1.92-4.21,15.72-13.62,36.66-19.22,56.99-19.83,15.26-.39,30.64,1.78,44.82,7.67,5.1,2.78,20.2,7.37,14.68,15.64-1.22,1.51-2.99,2.1-4.79,2.04h0Z" class="cls-3"></path>
        </g>
      </g>
      <ellipse ry="92.42" rx="109.21" cy="1232.56" cx="462.71" class="cls-2"></ellipse>
      <ellipse ry="92.42" rx="109.21" cy="1232.56" cx="714.41" class="cls-2"></ellipse>
      <g>
        <g>
          <path d="M348.64,966.54c-64.33-18.15-106.36,16.85-110.06,81.63-2.85,56.27,18.79,112.46,49.78,158.9,31.4,46.33,76.29,85.81,130.35,102.07,38.15,11.49,84.87,13.41,115.4-15.9,68.06-66.47,48.8-225.06,18-307.15-1.49-3.97-2.45-6.88-5.7-9.22-9.58-6.1-25.86-7.92-37.86-10.72-28.59-5.68-57.18-13.38-85.01-22.04-13.91-4.25-27.8-8.89-41.25-12.67-8.53-1.89-17.09-5.25-23.77-1.59-11.27,10.59-1.99,23.72,8.82,31.36,34.25,23.72,77.41,34.66,117.83,44.38,4.59.76,7.49,5.62,5.9,10.01-8.95,25.13-19.57,49.03-31.76,72.62-12.2,23.39-26.13,46.01-42.91,66.65-1.75,2.16-4.92,2.48-7.08.73-2.14-1.73-2.47-4.85-.8-7,15.43-20.41,28.22-42.87,39.32-66.1,10.95-23.12,20.71-47.36,28.4-71.65,0,0,5.89,10.01,5.89,10.01-28.98-5.98-57.21-13.54-84.99-24.42-21.06-9.06-44.6-18.59-57.47-40-7.6-13.05-3.87-31.4,8-40.78,11.69-8.98,27.75-4.55,39.3-1.71,41.98,12.28,82.41,26.26,125.25,34.3,15.81,3.89,29.85,4.14,45,13.87,5.86,3.95,9.96,11.14,11.98,17.49,3.21,8.67,6.21,17.62,8.76,26.46,24.32,86.32,37.67,231.5-32.75,299.23-34.88,33.16-87.84,32.31-131.04,18.8-57.65-17.72-104.91-59.55-137.94-108.85-32.54-49.43-54.55-107.9-50.84-167.99,2.36-30.13,12.7-62.24,38.12-81.12,25.71-18.84,59.37-19.25,88.84-10.32,7.32,2.51,3.51,13.21-3.69,10.73h0Z" class="cls-3"></path>
          <path d="M447.28,1084.76c-2.57-12.28-7.04-24.49-12.73-35.76-.7-1.38-.15-3.07,1.23-3.77,1.21-.61,2.65-.27,3.46.75,6.31,7.87,11.87,16.45,16.59,25.41,2.65,5.37,9.13,14.6.85,18.41-3.95,1.72-8.64-.81-9.4-5.04h0Z" class="cls-3"></path>
        </g>
        <g>
          <path d="M824.99,955.81c71.47-21.46,122.15,18.64,126.96,91.44,3.71,60.09-18.31,118.56-50.84,167.99-33.03,49.3-80.29,91.13-137.94,108.85-43.19,13.51-96.17,14.37-131.04-18.8-70.4-67.62-57.08-212.97-32.76-299.22,2.55-8.83,5.54-17.8,8.76-26.46,2.04-6.34,6.11-13.55,11.98-17.49,15.13-9.74,29.2-9.99,45-13.87,42.85-8.04,83.27-22.02,125.25-34.31,11.55-2.84,27.61-7.26,39.3,1.71,11.87,9.38,15.62,27.72,8,40.78-12.86,21.4-36.41,30.95-57.47,40-27.78,10.87-56.01,18.44-84.99,24.42l5.9-10.01c7.69,24.29,17.44,48.53,28.4,71.65,11.09,23.24,23.88,45.69,39.31,66.1,1.73,2.21,1.31,5.42-.93,7.11-2.17,1.64-5.24,1.25-6.94-.84-16.78-20.64-30.71-43.26-42.91-66.65-12.19-23.59-22.81-47.49-31.76-72.62-1.6-4.39,1.31-9.25,5.9-10.02,40.41-9.71,83.59-20.66,117.83-44.37,10.82-7.72,20.12-20.7,8.82-31.36-6.69-3.66-15.24-.29-23.77,1.59-13.46,3.78-27.34,8.41-41.25,12.67-27.83,8.67-56.41,16.37-85.01,22.04-12,2.79-28.31,4.61-37.86,10.72-3.24,2.35-4.22,5.25-5.7,9.22-30.81,82.13-50.09,240.57,17.99,307.15,30.54,29.3,77.24,27.39,115.4,15.9,54.06-16.26,98.94-55.73,130.35-102.07,30.99-46.43,52.63-102.63,49.78-158.9-1.77-26.67-10.45-55.64-32.27-72.2-21.16-16.25-52.01-17.01-77.79-9.44-7.29,2.52-10.92-8.31-3.69-10.73h0Z" class="cls-3"></path>
          <path d="M716.98,1080.81c5.5-12.61,12.61-24.14,21.11-34.84,1.99-2.62,6.25.15,4.69,3.02-4.38,8.59-7.85,17.55-10.51,26.77-2.02,5.89-1.6,15.76-10.25,14.45-4.24-.76-6.74-5.46-5.04-9.4h0Z" class="cls-3"></path>
        </g>
      </g>
      <path d="M535.19,1307.51s53.47-65.91,53.47-96.3,12.23,62.24,60.3,97.03c48.07,34.78-113.77-.73-113.77-.73Z" class="cls-3"></path>
    </g>
  </g>
</svg>