<svg xmlns="http://www.w3.org/2000/svg" fill="none" viewBox="0 0 194 191" height="191" width="194">
<g clip-path="url(#clip0_7877_25364)">
<path stroke-linejoin="round" stroke-linecap="round" stroke-width="6" stroke="#0F3062" d="M136.26 117.75C140.11 111.08 142.31 103.34 142.31 95.0904C142.31 69.9904 121.97 49.6504 96.8697 49.6504C71.7697 49.6504 51.4297 69.9904 51.4297 95.0904C51.4297 105.16 54.7097 114.46 60.2497 122"></path>
<path stroke-linejoin="round" stroke-linecap="round" stroke-width="6" stroke="#0F3062" d="M74.8594 99.1001L86.8494 111.1L118.869 79.0801"></path>
<path stroke-linejoin="round" stroke-linecap="round" stroke-width="6" stroke="#0F3062" d="M33.6309 187.44L41.1509 181.17C46.0909 177.05 52.3209 174.8 58.7409 174.8H91.0509C98.0509 174.8 104.831 172.38 110.251 167.95L147.931 137.17C152.861 133.14 153.331 125.78 148.951 121.16C144.981 116.97 138.431 116.58 134.001 120.28L102.731 138.69C97.8909 141.54 92.3709 143.04 86.7509 143.04H75.7409C71.0409 143.04 70.6809 147.41 70.6809 147.41C70.6809 144.62 72.9409 142.35 75.7409 142.35H87.3309C93.0309 142.35 97.6509 137.73 97.6509 132.03C97.6509 126.33 93.0309 121.71 87.3309 121.71H65.6209C51.6009 121.71 38.1509 127.28 28.2409 137.19L11.7109 153.72"></path>
<path stroke-linejoin="round" stroke-linecap="round" stroke-width="6" stroke="#0F3062" d="M96.8594 26.87V3"></path>
<path stroke-linejoin="round" stroke-linecap="round" stroke-width="6" stroke="#0F3062" d="M166.859 95.0898H190.729"></path>
<path stroke-linejoin="round" stroke-linecap="round" stroke-width="6" stroke="#0F3062" d="M3 95.0898H26.87"></path>
<path stroke-linejoin="round" stroke-linecap="round" stroke-width="6" stroke="#0F3062" d="M26.9492 25.1699L43.8292 42.0599"></path>
<path stroke-linejoin="round" stroke-linecap="round" stroke-width="6" stroke="#0F3062" d="M156.41 25.1699L139.52 42.0599"></path>
</g>
<defs>
<clipPath id="clip0_7877_25364">
<rect fill="white" height="190.44" width="193.73"></rect>
</clipPath>
</defs>
</svg>
