<svg width="1485" height="61" viewBox="0 0 1485 61" fill="none" xmlns="http://www.w3.org/2000/svg">
  <path d="M868.351 41.8509C872.575 36.8107 905.056 -0.723208 953.563 1.05744C959.436 1.27418 995.138 9.28073 1014.3 23.2667C1023.54 30.0111 1030.32 37.0954 1035.02 42.7476C1035.88 43.7761 1037.36 44.0268 1038.5 43.3213C1052.16 34.8813 1083.87 18.1372 1127.16 18.7365C1168.36 19.3059 1198.38 35.2808 1211.73 43.5976C1212.67 44.1798 1213.86 44.133 1214.74 43.4786C1226.28 34.9578 1258.64 13.8195 1303.93 15.1114C1336.86 16.0506 1361.38 28.4047 1373.72 35.9097C1374.97 36.6662 1376.58 36.2965 1377.37 35.0725C1382.06 27.8309 1397.92 6.92211 1426.77 3.77729C1456.88 0.492224 1477.38 19.1657 1483.05 25.0729C1483.92 25.9823 1485.31 26.1608 1486.38 25.5063C1494.95 20.2791 1512.42 11.3971 1536.16 10.5769C1560.78 9.72696 1579.31 18.0012 1587.95 22.625C1588.75 23.05 1589.7 23.0457 1590.5 22.6165C1602.07 16.3608 1623.37 6.98586 1651.3 6.33565C1692.1 5.37945 1721.63 23.6237 1733 31.6642C1733.87 32.2804 1735.02 32.3187 1735.93 31.7705C1736.99 31.1288 1738.08 30.4913 1739.21 29.8623C1741.68 28.4812 1746.56 25.8166 1754.44 22.7865C1784.29 11.3164 1806.48 10.1392 1806.48 10.1392C1806.48 10.1392 1836.31 8.55827 1873.44 22.7865C1881.18 25.7528 1886.65 27.8479 1888.67 29.8623C1888.97 30.1556 1890.35 30.8015 1891.95 31.7705C1892.86 32.3229 1894.01 32.2804 1894.88 31.6642C1906.26 23.6237 1935.78 5.3837 1976.58 6.33565C2004.51 6.99011 2025.81 16.3608 2037.38 22.6165C2038.18 23.0457 2039.13 23.05 2039.93 22.625C2048.57 18.0012 2067.1 9.73121 2091.72 10.5769C2115.46 11.3971 2132.93 20.2791 2141.5 25.5063C2142.57 26.1608 2143.96 25.9823 2144.83 25.0729C2150.5 19.1657 2171 0.496474 2201.11 3.77729C2229.96 6.92211 2245.82 27.8309 2250.51 35.0725C2251.3 36.2922 2252.91 36.662 2254.16 35.9097C2266.5 28.4047 2291.02 16.0506 2323.95 15.1114C2369.24 13.8237 2401.61 34.962 2413.14 43.4786C2414.03 44.133 2415.22 44.1755 2416.15 43.5976C2429.51 35.285 2459.52 19.3059 2500.72 18.7365C2544.02 18.1415 2575.73 34.8856 2589.39 43.3213C2590.52 44.0268 2592 43.7761 2592.86 42.7476C2597.56 37.0954 2604.35 30.0111 2613.58 23.2667C2623.75 15.8509 2646.15 2.06464 2674.32 1.05744C2722.89 -0.680711 2755.26 36.7512 2759.53 41.8509V60.9961H-22V22.7822C-17.2148 24.5799 -12.0768 26.8832 -6.7646 29.8581C-5.63841 30.487 -4.54622 31.1245 -3.48378 31.7662C-2.57434 32.3187 -1.42265 32.2762 -0.555696 31.66C10.8209 23.6194 40.344 5.37945 81.1417 6.3314C109.075 6.98586 130.375 16.3566 141.947 22.6122C142.742 23.0415 143.694 23.0457 144.489 22.6207C153.133 17.997 171.662 9.72696 196.285 10.5727C220.02 11.3929 237.495 20.2749 246.062 25.5021C247.138 26.1565 248.523 25.978 249.394 25.0686C255.059 19.1614 275.56 0.492224 305.678 3.77304C334.525 6.91786 350.385 27.8267 355.073 35.0683C355.863 36.288 357.474 36.6577 358.719 35.9055C371.065 28.4004 395.586 16.0464 428.513 15.1072C473.807 13.8195 506.169 34.9578 517.703 43.4743C518.587 44.1288 519.777 44.1713 520.712 43.5933C534.065 35.2808 564.081 19.3017 605.282 18.7322C648.574 18.1372 680.286 34.8813 693.945 43.3171C695.084 44.0225 696.563 43.7718 697.421 42.7434C702.121 37.0912 708.908 30.0068 718.143 23.2625C737.309 9.28073 773.012 1.27418 778.885 1.05744C827.392 -0.723208 859.873 36.8107 864.097 41.8509C864.581 42.6414 865.452 43.1046 866.362 43.0536C867.633 42.9813 868.291 41.9444 868.347 41.8509H868.351Z" fill="currentColor"/>
</svg>
