<svg xmlns="http://www.w3.org/2000/svg" fill="none" viewBox="0 0 207 107" height="107" width="207">
<path fill="#E5757E" d="M32.191 45.7326C34.1315 42.3431 33.6584 37.8855 30.7176 35.2304C26.2882 30.7636 19.7618 29.3344 14.6153 25.9176C10.7374 23.4233 12.5905 20.1278 16.7516 20.3554C20.2499 20.6042 23.1847 22.8831 26.2671 24.7463C27.6351 25.5474 30.3228 27.0464 31.1334 24.8677C31.8445 22.1184 29.6991 17.9218 27.5297 16.2558C25.8574 15.1331 23.8627 15.9494 21.9674 15.922C19.7949 15.916 17.6435 15.4062 15.468 15.2878C7.4139 14.4716 -0.79993 19.7151 1.49006 28.5181C3.74088 34.9633 11.1502 36.9024 16.6733 39.8701C18.4721 40.8107 20.9279 42.243 21.2081 44.0758C21.4069 45.2805 20.5301 46.3547 19.4363 46.7886C15.3596 48.0722 11.8131 45.4171 8.39317 42.8105C6.53406 41.3994 4.72919 39.4877 2.45728 38.7655C0.459564 38.1435 -0.191275 40.216 0.0467632 42.067C0.390262 44.4551 1.36049 46.6248 2.40304 48.7853V48.7914L2.45728 48.8915C4.37665 52.6543 6.30808 51.2038 9.66171 51.0187C12.1717 51.1067 14.4827 51.9533 17.0529 52.0261C22.6694 52.4085 29.2381 50.9641 32.191 45.7357V45.7326ZM72.1182 51.9776C74.3027 51.9776 75.5381 51.6134 75.5381 50.2267C75.5381 47.5958 71.2624 46.027 69.8794 42.8894L62.0633 31.5071C61.6746 30.885 61.3944 30.2751 61.5902 29.5043C61.7891 28.7336 64.1815 26.8886 65.9261 24.6552C66.9687 23.3231 69.0869 21.8211 70.6025 21.0715C71.6903 20.5375 72.775 20.0155 72.775 18.7775C72.775 17.4666 71.6119 16.9568 69.8673 16.9568H60.2614C58.1492 16.9568 56.9861 17.3209 56.9861 18.7077C56.9861 20.9593 59.8245 21.0806 56.5131 24.4003L56.5071 24.4125L52.7708 27.6927C51.4209 29.0734 50.312 28.6243 50.312 26.6853V12.663L50.3843 2.6675C50.3843 1.05923 49.4021 0.185303 48.019 0.185303C46.856 0.185303 41.2455 1.91798 38.3378 3.30777C36.5932 4.1119 36.0207 5.14666 36.0207 6.2421C36.0207 8.43298 38.3438 8.2843 38.3438 12.6661L38.4161 41.6392C38.4161 47.1164 35.4452 46.4549 35.4452 49.8838C35.4452 51.486 36.9156 51.9958 38.2715 51.9958H50.0619C52.1742 51.9958 53.4095 51.6317 53.4095 49.9536C53.4095 46.4488 49.842 46.8766 49.842 41.6331V36.784C49.842 35.5186 50.8785 34.496 52.141 34.5203H52.5538C53.75 34.5355 54.8317 35.2425 55.3319 36.3319L58.5319 43.2929C60.0565 46.6491 57.2031 47.7506 57.2031 50.163C57.2031 51.4739 58.4385 51.9837 60.6953 51.9837H72.1212L72.1182 51.9776ZM78.2288 49.8626C78.2288 51.4648 79.5395 51.9745 81.7964 51.9745H93.5145C95.6267 51.9745 96.8621 51.6104 96.8621 49.9324C96.8621 46.4275 93.2945 48.2543 93.2945 41.6118V28.77L93.3669 18.7744C93.3669 17.1662 92.8606 16.2923 91.5499 16.2923C90.3145 16.2923 83.6886 18.4831 80.781 19.8699C79.0303 20.674 78.3765 21.2566 78.3765 22.3521C78.3765 24.543 81.7964 24.3943 81.7964 28.776L81.8687 41.6179C81.8687 48.2543 78.2288 46.4336 78.2288 49.8626ZM85.2103 12.9483C89.4317 12.9483 93.7284 9.44346 93.8007 5.35907C93.8007 2.51274 91.4686 0.394681 88.5579 0.394681C84.4148 0.318819 80.2657 4.33645 80.2657 8.1265L80.2597 8.13257C80.1874 10.6876 82.0103 12.9483 85.2103 12.9483ZM139.167 41.6179V34.7206C139.167 32.1291 138.898 29.5407 138.311 27.0221C138.139 26.2908 137.955 25.602 137.757 25.0619C135.771 19.6362 132.559 16.2285 125.957 16.2285C121.296 16.2285 117.153 18.2707 114.459 22.2823V18.7047C114.459 17.0964 113.95 16.2225 112.642 16.2225C111.407 16.2953 105.874 17.9005 103.036 19.2175C101.291 20.0216 100.632 20.6042 100.632 21.9212C100.632 23.0895 101.361 23.6721 102.015 24.1819C103.178 25.2045 104.271 26.2939 104.271 28.1236V41.624C104.271 48.2664 100.632 46.4397 100.632 49.8686C100.632 51.4769 101.942 51.9837 104.121 51.9837H115.911C118.017 51.9837 119.259 51.6195 119.259 49.9415C119.259 46.4397 115.691 48.2634 115.691 41.6209V31.768C115.691 26.661 118.385 23.5234 121.805 23.5234C124.556 23.4748 126.093 25.3896 127.069 27.9203C127.491 29.0279 127.792 30.1719 127.943 31.3432C128.437 35.3214 128.036 41.0899 128.036 41.0899H128.042C128.042 47.7324 124.107 46.4397 124.107 49.8686C124.107 51.4769 125.418 51.9837 127.599 51.9837H139.39C141.496 51.9837 142.737 51.6195 142.737 49.9415C142.737 46.4397 139.17 48.2634 139.17 41.6209L139.167 41.6179ZM54.3255 80.1981C51.8487 82.2403 49.4473 84.1399 45.1535 84.1399C37.8798 84.1399 33.2215 78.1529 33.2215 69.5441C33.2215 64.4371 35.406 61.1508 39.1152 61.1508C42.3212 61.1508 44.5057 64.1397 45.7411 68.5913C46.4642 71.4376 47.778 73.6285 51.1979 73.6285C53.8916 73.6285 56.5101 71.8776 56.5101 68.0087C56.5101 61.5149 50.544 55.8223 41.5197 55.8223C31.043 55.8223 22.2386 63.9182 22.2386 75.1579V75.1639C22.2386 84.0701 28.4969 92.3148 40.0643 92.3148C49.9595 92.3148 55.344 86.5523 56.727 82.3192C57.4502 79.9796 55.9978 78.7416 54.3225 80.2012L54.3255 80.1981ZM96.8229 80.0889V68.3334L96.8952 58.3378C96.8952 56.7296 96.389 55.8556 95.0783 55.8556C93.9152 55.8556 87.2954 58.0465 84.3093 59.4333C82.5647 60.2374 81.9832 60.82 81.9832 61.9155C81.9832 64.1063 85.4031 63.9577 85.4031 68.3394V75.4188C85.4031 81.1115 82.1971 85.0502 78.7079 85.1231C74.9204 85.1231 73.7573 82.1341 73.7573 77.0969V68.3394L73.8296 58.3439C73.8296 56.7356 73.3234 55.8617 72.0127 55.8617C70.7773 55.8617 64.2297 58.0526 61.2437 59.4393C59.4991 60.2435 58.9176 60.8261 58.9176 61.9215C58.9176 64.1124 62.2652 63.9637 62.2652 68.3455L62.3375 77.543C62.3375 86.4431 66.4113 92.2814 74.5618 92.2814C78.491 92.2814 82.9323 90.1633 85.7707 86.3702L85.843 87.757C86.063 91.1161 87.0061 92.2814 89.1906 92.2814C91.3752 92.2814 96.1058 90.6731 98.4319 89.5079C100.177 88.4853 101.05 87.6811 101.05 86.5129C101.05 84.3948 96.8289 85.3476 96.8289 80.0889H96.8229ZM127.238 55.8223C121.486 55.8223 117.776 58.526 115.447 61.7334V58.3044C115.447 56.6962 114.941 55.8223 113.63 55.8223C112.467 55.8223 106.935 57.4305 104.024 58.8173C102.274 59.6214 101.62 60.1282 101.62 61.4421C101.62 62.6104 102.421 63.193 103.003 63.7756C104.238 64.7284 105.26 65.8239 105.26 67.6445V95.8135C105.26 102.456 101.62 100.635 101.62 104.134C101.62 105.663 102.931 106.176 105.187 106.176H116.978C119.015 106.176 120.325 105.812 120.325 104.134C120.325 100.629 116.686 102.456 116.686 95.8135V89.6808C119.084 91.0676 122.212 92.3056 125.779 92.3056C132.694 92.3056 142.008 86.4673 142.008 72.6029C142.008 61.8032 135.021 55.8223 127.232 55.8223H127.238ZM124.839 87.1289C120.69 87.1289 116.903 83.0444 116.761 76.1107L116.689 71.5165C116.61 66.2608 119.376 62.5406 122.944 62.5406C128.187 62.5406 131.022 69.5411 131.022 77.3518C131.022 81.6607 129.419 87.1319 124.836 87.1319L124.839 87.1289ZM152.271 53.2733C156.486 53.2733 160.783 49.7685 160.855 45.6841C160.855 42.8378 158.523 40.7197 155.612 40.7197C151.469 40.6438 147.32 44.6615 147.32 48.4515V48.4576C147.248 51.0126 149.071 53.2733 152.271 53.2733ZM160.343 81.9399V69.098L160.415 59.1025C160.415 57.4942 159.909 56.6203 158.598 56.6203C157.363 56.6203 150.74 58.8112 147.829 60.1979C146.079 61.0021 145.425 61.5847 145.425 62.6801C145.425 64.871 148.845 64.7223 148.845 69.1041L148.917 81.946C148.917 88.5824 145.277 86.7617 145.277 90.1906C145.277 91.7928 146.588 92.3056 148.845 92.3056H160.563C162.675 92.3056 163.911 91.9415 163.911 90.2635C163.911 86.7586 160.343 88.5854 160.343 81.9429V81.9399ZM202.777 79.925L202.925 52.2689H202.919L202.991 42.2734C202.991 40.6651 202.485 39.7912 201.174 39.7912C199.939 39.7912 193.316 41.982 190.405 43.3688C188.655 44.1729 188.001 44.7555 188.001 45.851C188.001 48.0419 191.421 47.969 191.421 52.275V57.1635C189.676 56.3593 187.491 55.8465 184.873 55.8465C176.795 55.8465 166.315 63.0746 166.315 76.3535C166.315 85.8362 172.356 92.0386 180.359 92.2601C185.891 92.4817 189.459 90.0693 191.785 86.9316V87.5871C192.005 90.9432 192.948 92.1114 195.133 92.1114C197.317 92.1114 202.048 90.5032 204.374 89.3379C206.191 88.3184 206.993 87.5871 206.993 86.4218C206.993 84.2309 202.771 85.1838 202.771 79.9281L202.777 79.925ZM185.539 85.1049C180.736 85.1049 177.168 79.5578 177.168 71.383C177.168 64.8892 179.642 60.9475 183.936 60.9475C186.627 60.9475 188.88 62.4829 190.194 65.6205C190.848 67.2288 191.282 69.8536 191.43 72.9184V77.6643H191.436C191.074 82.04 189.179 85.1049 185.542 85.1049H185.539Z" id="Vector"></path>
</svg>
