<svg xmlns="http://www.w3.org/2000/svg" fill="none" viewBox="0 0 19 20" height="20" width="19">
<path fill="#0F3062" d="M5.51 0.874512H13.49C16.53 0.874512 19 3.34451 19 6.38451V14.3645C19 15.8259 18.4195 17.2273 17.3862 18.2607C16.3528 19.294 14.9513 19.8745 13.49 19.8745H5.51C2.47 19.8745 0 17.4045 0 14.3645V6.38451C0 4.92317 0.580516 3.52168 1.61384 2.48835C2.64717 1.45503 4.04866 0.874512 5.51 0.874512ZM5.32 2.77451C4.41296 2.77451 3.54307 3.13483 2.90169 3.77621C2.26032 4.41758 1.9 5.28747 1.9 6.19451V14.5545C1.9 16.445 3.4295 17.9745 5.32 17.9745H13.68C14.587 17.9745 15.4569 17.6142 16.0983 16.9728C16.7397 16.3314 17.1 15.4616 17.1 14.5545V6.19451C17.1 4.30401 15.5705 2.77451 13.68 2.77451H5.32ZM14.4875 4.19951C14.8024 4.19951 15.1045 4.32462 15.3272 4.54732C15.5499 4.77002 15.675 5.07207 15.675 5.38701C15.675 5.70196 15.5499 6.004 15.3272 6.2267C15.1045 6.4494 14.8024 6.57451 14.4875 6.57451C14.1726 6.57451 13.8705 6.4494 13.6478 6.2267C13.4251 6.004 13.3 5.70196 13.3 5.38701C13.3 5.07207 13.4251 4.77002 13.6478 4.54732C13.8705 4.32462 14.1726 4.19951 14.4875 4.19951ZM9.5 5.62451C10.7598 5.62451 11.968 6.12496 12.8588 7.01575C13.7496 7.90655 14.25 9.11473 14.25 10.3745C14.25 11.6343 13.7496 12.8425 12.8588 13.7333C11.968 14.6241 10.7598 15.1245 9.5 15.1245C8.24022 15.1245 7.03204 14.6241 6.14124 13.7333C5.25044 12.8425 4.75 11.6343 4.75 10.3745C4.75 9.11473 5.25044 7.90655 6.14124 7.01575C7.03204 6.12496 8.24022 5.62451 9.5 5.62451ZM9.5 7.52451C8.74413 7.52451 8.01922 7.82478 7.48475 8.35926C6.95027 8.89374 6.65 9.61864 6.65 10.3745C6.65 11.1304 6.95027 11.8553 7.48475 12.3898C8.01922 12.9242 8.74413 13.2245 9.5 13.2245C10.2559 13.2245 10.9808 12.9242 11.5153 12.3898C12.0497 11.8553 12.35 11.1304 12.35 10.3745C12.35 9.61864 12.0497 8.89374 11.5153 8.35926C10.9808 7.82478 10.2559 7.52451 9.5 7.52451Z" id="Vector"></path>
</svg>
