<svg xmlns="http://www.w3.org/2000/svg" fill="none" viewBox="0 0 128 96" height="96" width="128">
<g clip-path="url(#clip0_5666_5074)">
<path fill="#F2737F" d="M103.78 26.7152C103.728 20.6404 101.386 14.5831 96.7707 9.95511C87.8281 1.02163 73.5479 0.611994 64.1264 8.75236C54.7049 0.611994 40.4246 1.02163 31.482 9.95511C26.8671 14.5918 24.5247 20.6404 24.4725 26.7152C24.4725 26.7675 24.4551 26.8111 24.4551 26.8459V47.8331C24.4551 53.2629 26.5536 58.3528 30.3936 62.1964L62.8202 94.6533C63.186 95.0019 63.6475 95.1849 64.1264 95.1849C64.6053 95.1849 65.0668 95.0019 65.4325 94.6533L97.8592 62.1964C101.699 58.3528 103.798 53.2629 103.798 47.8331V26.8459C103.798 26.8459 103.78 26.7762 103.78 26.7152ZM100.114 47.8331C100.114 52.2606 98.3816 56.4354 95.2469 59.573L64.1351 90.7313L33.0232 59.573C29.8885 56.4354 28.1558 52.2606 28.1558 47.8331V39.7102C29.0962 41.2092 30.202 42.6299 31.4907 43.9372L43.2197 55.6771C43.9424 56.4005 45.1179 56.4005 45.8407 55.6771C46.5634 54.9537 46.5634 53.7771 45.8407 53.0537L34.1117 41.3138C26.1792 33.3914 26.1792 20.4923 34.1117 12.5698C42.0268 4.62988 54.9139 4.62988 62.829 12.5698C63.5517 13.2932 64.7272 13.2932 65.4499 12.5698C73.365 4.62988 86.2521 4.62988 94.1672 12.5698C102.1 20.4923 102.1 33.3914 94.1672 41.3138L64.1438 71.3826L56.2461 63.4602C55.5234 62.7368 54.3479 62.7368 53.6251 63.4602C52.9024 64.1836 52.9024 65.3602 53.6251 66.0836L62.829 75.2959C63.1947 75.6446 63.6562 75.8276 64.1351 75.8276C64.614 75.8276 65.0755 75.6446 65.4412 75.2959L96.7794 43.9285C98.0681 42.6212 99.174 41.2005 100.114 39.7014V47.8244V47.8331Z"></path>
<path fill="#F2737F" d="M64.1257 42.2027C66.7118 42.2027 68.9757 40.8779 70.2819 38.8646L81.8802 43.0917C84.0745 43.8935 86.6955 43.5536 88.6285 42.1853C90.6051 40.8169 91.7806 38.5509 91.7806 36.1454V22.4096C91.7806 20.0128 90.5964 17.7555 88.6459 16.3697C86.6693 14.9839 84.1442 14.6527 81.8802 15.4633L70.2819 19.6903C68.9757 17.677 66.7031 16.3523 64.1257 16.3523C61.5483 16.3523 59.2756 17.6857 57.9695 19.6903L46.3711 15.4633C44.0985 14.6527 41.5733 14.9839 39.6054 16.3697C37.6462 17.7555 36.4707 20.0041 36.4707 22.4096V36.1454C36.4707 38.5422 37.6549 40.8169 39.6228 42.1853C41.582 43.5711 44.1159 43.8935 46.3711 43.0917L57.9695 38.8646C59.2756 40.8779 61.5483 42.2027 64.1257 42.2027ZM71.5096 31.1252H78.8848C79.8949 31.1252 80.7308 30.2972 80.7308 29.2775C80.7308 28.2578 79.9036 27.4298 78.8848 27.4298H71.5096V23.1853L83.1689 18.9408C84.3096 18.5312 85.5461 18.6793 86.5474 19.4027C87.5401 20.1 88.1148 21.1894 88.1148 22.4096V36.1454C88.1148 37.3656 87.5401 38.4724 86.5474 39.1697C85.5548 39.8669 84.3183 40.0151 83.1689 39.6142L71.5096 35.3697V31.1252ZM60.4424 23.7431C60.4424 21.7123 62.1055 20.0477 64.1344 20.0477C66.1632 20.0477 67.8263 21.7123 67.8263 23.7431V34.8206C67.8263 36.8513 66.1632 38.516 64.1344 38.516C62.1055 38.516 60.4424 36.8513 60.4424 34.8206V23.7431ZM56.7504 27.4298H49.3752C48.3651 27.4298 47.5292 28.2578 47.5292 29.2775C47.5292 30.2972 48.3564 31.1252 49.3752 31.1252H56.7504V35.3697L45.0911 39.6142C43.9504 40.0238 42.714 39.8582 41.7126 39.1697C40.72 38.4724 40.1453 37.3568 40.1453 36.1454V22.4096C40.1453 21.1894 40.72 20.1 41.7126 19.4027C42.653 18.7403 43.9766 18.5399 45.0911 18.9408L56.7504 23.1853V27.4298Z"></path>
<path fill="#F2737F" d="M49.7327 61.412C50.7522 61.412 51.5787 60.5847 51.5787 59.5643C51.5787 58.5438 50.7522 57.7166 49.7327 57.7166C48.7132 57.7166 47.8867 58.5438 47.8867 59.5643C47.8867 60.5847 48.7132 61.412 49.7327 61.412Z"></path>
</g>
<defs>
<clipPath id="clip0_5666_5074">
<rect transform="translate(0 0.603394)" fill="white" height="95" width="128"></rect>
</clipPath>
</defs>
</svg>
