<svg xmlns="http://www.w3.org/2000/svg" fill="none" viewBox="0 0 26 26" height="26" width="26">
<path fill="#0F3062" d="M10.2503 2.44132C17.4345 -0.328789 25.3341 6.73598 21.277 13.9303C20.9397 14.5182 21.277 14.7474 21.6244 14.1395C25.7939 6.76587 19.0287 -1.77363 10.6182 1.47477C10.3524 1.57441 9.89258 2.58082 10.2605 2.44132H10.2503ZM12.2226 13.8705C12.3146 14 12.4883 13.8406 12.5598 13.7609C14.4504 11.5588 16.341 9.34665 18.2316 7.14452C18.436 6.90537 18.7323 5.89897 18.2418 6.46694C16.4228 8.57939 14.6139 10.7018 12.7949 12.8143C11.8036 11.479 10.8225 10.1438 9.83126 8.80858C9.64731 8.55946 8.96261 9.47619 9.13634 9.71534C10.1583 11.1004 11.1904 12.4854 12.2124 13.8705H12.2226ZM18.763 17.3481C18.5484 17.4577 18.1703 18.3047 18.4564 18.1652C19.6521 17.5673 20.8886 16.7901 22.1456 16.3317C24.9559 15.3054 25.5487 16.8499 23.7603 18.3844C21.9004 19.9787 18.1805 21.7025 15.8403 22.5296C11.4561 24.0641 7.06181 21.583 3.40327 25.0605C3.19888 25.2499 2.93318 26.0769 3.40327 25.6385C6.62237 22.5794 10.5773 24.6221 14.522 23.7353C17.2914 23.1075 20.1324 20.9452 22.6157 19.6499C23.8318 19.0121 26.0699 18.1751 25.9983 16.4612C25.845 12.8143 20.0711 16.7104 18.7732 17.358L18.763 17.3481ZM7.29685 14.0698C5.15078 10.8513 5.13034 6.84559 8.00199 3.91605C8.22682 3.68687 8.54362 2.70039 8.01221 3.23847C4.83398 6.48687 4.02665 11.1203 6.60193 14.9765C6.76544 15.2257 7.46036 14.3189 7.29685 14.0698ZM11.405 17.4278C12.1306 17.4577 12.846 17.4278 13.5716 17.4278C14.3176 17.4378 19.0696 17.916 15.411 19.7694C14.3789 20.2876 11.8036 19.7694 10.6182 19.7694C10.3524 19.7694 9.95389 20.6264 10.1889 20.6264C11.9365 20.6264 15.0942 21.2641 16.5147 20.0185C18.2112 18.5338 17.0666 16.7701 15.0636 16.5709C13.8679 16.4513 12.6314 16.6107 11.4255 16.541C9.61665 16.4313 7.75673 15.7438 5.93768 16.1822C3.67919 16.7303 1.96233 18.9723 0.317014 20.447C0.153503 20.5965 -0.204175 21.4833 0.153503 21.1644C1.36961 20.0684 2.54484 18.7331 3.90402 17.8064C6.24426 16.2022 8.81954 17.3182 11.405 17.4178V17.4278Z" id="Vector"></path>
</svg>
