<svg xmlns="http://www.w3.org/2000/svg" fill="none" viewBox="0 0 37 34" height="34" width="37">
<path fill="#E5757E" d="M33.8137 17.9246C33.6952 18.0431 33.5745 18.1582 33.4519 18.2699L33.4601 18.2782L33.2184 18.5199L33.2383 18.5398L18.389 33.3891L3.5398 18.5398L3.54809 18.5315C3.42541 18.4199 3.30476 18.3048 3.18625 18.1863C-0.91425 14.0858 -0.914229 7.43751 3.18625 3.33703C7.28673 -0.763448 13.935 -0.76347 18.0355 3.33703C18.1473 3.44883 18.2561 3.56254 18.3618 3.67805L18.6109 3.42892L18.6192 3.43719C18.7308 3.31454 18.8459 3.19389 18.9644 3.07537C23.065 -1.02513 29.7132 -1.02513 33.8137 3.07537C37.9142 7.17588 37.9142 13.8241 33.8137 17.9246Z" clip-rule="evenodd" fill-rule="evenodd" id="Union"></path>
</svg>
